<svg width="21" height="20" viewBox="0 0 21 20" fill="none" xmlns="http://www.w3.org/2000/svg">
<path d="M7.08763 11.2857H14.8019C15.401 11.2857 15.7005 11.2857 15.9368 11.3835C16.2518 11.514 16.5021 11.7643 16.6326 12.0794C16.7305 12.3156 16.7305 12.6152 16.7305 13.2143C16.7305 13.8133 16.7305 14.1129 16.6326 14.3491C16.5021 14.6642 16.2518 14.9145 15.9368 15.045C15.7005 15.1428 15.401 15.1428 14.8019 15.1428H7.08763C6.48856 15.1428 6.18903 15.1428 5.95275 15.045C5.63771 14.9145 5.38742 14.6642 5.25693 14.3491C5.15906 14.1129 5.15906 13.8133 5.15906 13.2143C5.15906 12.6152 5.15906 12.3156 5.25693 12.0794C5.38742 11.7643 5.63771 11.514 5.95275 11.3835C6.18903 11.2857 6.48856 11.2857 7.08763 11.2857ZM7.08763 11.2857L7.08763 9.99997C7.08763 8.22476 8.52671 6.78568 10.3019 6.78568H11.5876M11.5876 6.78568C11.5876 6.18661 11.5876 5.88708 11.6855 5.6508C11.816 5.33576 12.0663 5.08547 12.3813 4.95498C12.6176 4.85711 12.9171 4.85711 13.5162 4.85711H14.8019C15.401 4.85711 15.7005 4.85711 15.9368 4.95498C16.2518 5.08547 16.5021 5.33576 16.6326 5.6508C16.7305 5.88708 16.7305 6.18661 16.7305 6.78568C16.7305 7.38475 16.7305 7.68428 16.6326 7.92056C16.5021 8.23559 16.2518 8.48589 15.9368 8.61638C15.7005 8.71425 15.401 8.71425 14.8019 8.71425H13.5162C12.9171 8.71425 12.6176 8.71425 12.3813 8.61638C12.0663 8.48589 11.816 8.23559 11.6855 7.92056C11.5876 7.68428 11.5876 7.38475 11.5876 6.78568Z" stroke="black" stroke-width="1.5" stroke-linecap="round" stroke-linejoin="round"/>
</svg>
