<svg width="16" height="16" viewBox="0 0 16 16" fill="none" xmlns="http://www.w3.org/2000/svg">
<path d="M3.99996 7.99992C3.99996 8.36811 3.70148 8.66659 3.33329 8.66659C2.9651 8.66659 2.66663 8.36811 2.66663 7.99992C2.66663 7.63173 2.9651 7.33325 3.33329 7.33325C3.70148 7.33325 3.99996 7.63173 3.99996 7.99992Z" stroke="black" stroke-width="1.33333" stroke-linecap="round" stroke-linejoin="round"/>
<path d="M8.66663 7.99992C8.66663 8.36811 8.36815 8.66659 7.99996 8.66659C7.63177 8.66659 7.33329 8.36811 7.33329 7.99992C7.33329 7.63173 7.63177 7.33325 7.99996 7.33325C8.36815 7.33325 8.66663 7.63173 8.66663 7.99992Z" stroke="black" stroke-width="1.33333" stroke-linecap="round" stroke-linejoin="round"/>
<path d="M13.3333 7.99992C13.3333 8.36811 13.0348 8.66659 12.6666 8.66659C12.2984 8.66659 12 8.36811 12 7.99992C12 7.63173 12.2984 7.33325 12.6666 7.33325C13.0348 7.33325 13.3333 7.63173 13.3333 7.99992Z" stroke="black" stroke-width="1.33333" stroke-linecap="round" stroke-linejoin="round"/>
</svg>
