<svg width="21" height="20" viewBox="0 0 21 20" fill="none" xmlns="http://www.w3.org/2000/svg">
<path d="M9.90918 5.25V5.5H12.4092V5.25C12.4092 4.91848 12.2775 4.60054 12.0431 4.36612C11.8086 4.1317 11.4907 4 11.1592 4C10.8277 4 10.5097 4.1317 10.2753 4.36612C10.0409 4.60054 9.90918 4.91848 9.90918 5.25ZM8.90918 5.5V5.25C8.90918 4.65326 9.14623 4.08097 9.56819 3.65901C9.99015 3.23705 10.5624 3 11.1592 3C11.7559 3 12.3282 3.23705 12.7502 3.65901C13.1721 4.08097 13.4092 4.65326 13.4092 5.25V5.5H17.1592C17.2918 5.5 17.419 5.55268 17.5127 5.64645C17.6065 5.74021 17.6592 5.86739 17.6592 6C17.6592 6.13261 17.6065 6.25979 17.5127 6.35355C17.419 6.44732 17.2918 6.5 17.1592 6.5H16.4052L15.4592 14.784C15.3894 15.3941 15.0976 15.9572 14.6393 16.3659C14.1809 16.7746 13.5882 17.0003 12.9742 17H9.34418C8.73011 17.0003 8.13741 16.7746 7.67911 16.3659C7.2208 15.9572 6.92894 15.3941 6.85918 14.784L5.91318 6.5H5.15918C5.02657 6.5 4.89939 6.44732 4.80563 6.35355C4.71186 6.25979 4.65918 6.13261 4.65918 6C4.65918 5.86739 4.71186 5.74021 4.80563 5.64645C4.89939 5.55268 5.02657 5.5 5.15918 5.5H8.90918ZM7.85318 14.67C7.89492 15.036 8.06986 15.3738 8.34464 15.619C8.61942 15.8643 8.97485 15.9999 9.34318 16H12.9747C13.343 15.9999 13.6984 15.8643 13.9732 15.619C14.248 15.3738 14.4229 15.036 14.4647 14.67L15.3992 6.5H6.91968L7.85318 14.67ZM9.65918 8.25C9.79179 8.25 9.91896 8.30268 10.0127 8.39645C10.1065 8.49021 10.1592 8.61739 10.1592 8.75V13.75C10.1592 13.8826 10.1065 14.0098 10.0127 14.1036C9.91896 14.1973 9.79179 14.25 9.65918 14.25C9.52657 14.25 9.39939 14.1973 9.30563 14.1036C9.21186 14.0098 9.15918 13.8826 9.15918 13.75V8.75C9.15918 8.61739 9.21186 8.49021 9.30563 8.39645C9.39939 8.30268 9.52657 8.25 9.65918 8.25ZM13.1592 8.75C13.1592 8.61739 13.1065 8.49021 13.0127 8.39645C12.919 8.30268 12.7918 8.25 12.6592 8.25C12.5266 8.25 12.3994 8.30268 12.3056 8.39645C12.2119 8.49021 12.1592 8.61739 12.1592 8.75V13.75C12.1592 13.8826 12.2119 14.0098 12.3056 14.1036C12.3994 14.1973 12.5266 14.25 12.6592 14.25C12.7918 14.25 12.919 14.1973 13.0127 14.1036C13.1065 14.0098 13.1592 13.8826 13.1592 13.75V8.75Z" fill="black"/>
</svg>
